<svg fill="#000000" height="24" width="24" version="1.1" id="Capa_1" viewBox="0 0 24 24">
<g>
	<g>
		<path d="M242,141.2c-55.6,0-100.8,45.2-100.8,100.8S186.4,342.8,242,342.8S342.8,297.6,342.8,242S297.6,141.2,242,141.2z
			 M212.2,173c-6.1,8.5-12.1,19.4-16.1,32.6h-19.8C184.3,191.1,197,179.6,212.2,173z M169.9,263.3c-2-6.8-3.1-13.9-3.1-21.3
			c0-7.4,1.1-14.6,3.1-21.3h22.6c-1.1,6.6-1.8,13.7-1.8,21.3c0,7.6,0.6,14.7,1.8,21.3H169.9z M176.3,278.4h19.8
			c4.1,13.2,10,24,16.1,32.6C197,304.4,184.3,292.9,176.3,278.4z M234.4,313.9c-7.3-7.4-16.4-19-22.4-35.5h22.4V313.9z M234.4,263.3
			h-26.5c-1.3-6.5-2-13.6-2-21.3s0.7-14.8,2-21.3h26.5V263.3z M234.4,205.6H212c5.9-16.6,15.1-28.2,22.4-35.6V205.6z M307.7,205.6
			h-19.8c-4.1-13.2-10-24-16.1-32.6C287,179.6,299.7,191.1,307.7,205.6z M249.6,170.1c7.3,7.4,16.4,19,22.4,35.5h-22.4V170.1z
			 M249.6,220.7h26.5c1.3,6.5,2,13.6,2,21.3c0,7.7-0.7,14.8-2,21.3h-26.5V220.7z M249.6,278.4H272c-5.9,16.6-15.1,28.2-22.4,35.6
			V278.4z M271.8,311c6.1-8.5,12.1-19.4,16.1-32.6h19.8C299.7,292.9,287,304.4,271.8,311z M291.4,263.3c1.1-6.6,1.8-13.7,1.8-21.3
			c0-7.6-0.6-14.7-1.8-21.3H314c2,6.8,3.1,13.9,3.1,21.3s-1.1,14.6-3.1,21.3H291.4z"/>
		<path d="M81.8,259h36.6c-0.8-5.6-1.2-11.2-1.2-17c0-4.1,0.2-8.1,0.6-12.1h-36c-5.9-16.1-21.4-27.6-39.6-27.6
			c-23.3,0-42.1,18.9-42.1,42.1c0,23.3,18.9,42.1,42.1,42.1C60.4,286.6,75.8,275.1,81.8,259z"/>
		<path d="M227.5,81.8V118c4.8-0.6,9.6-0.9,14.5-0.9s9.8,0.3,14.5,0.9V81.7c16.1-5.9,27.6-21.4,27.6-39.6C284.1,18.8,265.2,0,242,0
			c-23.3,0-42.1,18.9-42.1,42.1C199.9,60.4,211.4,75.8,227.5,81.8z"/>
		<path d="M100.7,142.9c6.3,0,12.3-1.4,17.7-3.9l25.7,25.7c6-7.6,12.9-14.5,20.6-20.6L139,118.4c2.5-5.4,3.9-11.4,3.9-17.7
			c0-23.3-18.9-42.1-42.1-42.1c-23.3,0-42.1,18.9-42.1,42.1C58.6,124,77.4,142.9,100.7,142.9z"/>
		<path d="M340,164.6l25.7-25.7c15.5,7.2,34.6,4.4,47.4-8.5c16.4-16.4,16.4-43.1,0-59.5s-43.1-16.4-59.5,0
			c-12.8,12.8-15.6,31.8-8.5,47.4l-21.5,21.5l0,0l-4.2,4.2C327,150.1,333.9,157,340,164.6z"/>
		<path d="M441.8,199.9c-19.1,0-35.2,12.7-40.4,30h-35.2c0.4,4,0.6,8,0.6,12.1c0,5.8-0.4,11.4-1.2,17h37.6
			c6.5,14.8,21.3,25.2,38.6,25.2c23.3,0,42.1-18.9,42.1-42.1S465.1,199.9,441.8,199.9z"/>
		<path d="M383.3,341.1c-6.3,0-12.3,1.4-17.7,3.9L340,319.4c-6,7.6-12.9,14.5-20.6,20.6l25.7,25.7c-2.5,5.4-3.9,11.4-3.9,17.7
			c0,23.3,18.9,42.1,42.1,42.1c23.3,0,42.1-18.9,42.1-42.1C425.4,360,406.6,341.1,383.3,341.1z"/>
		<path d="M144,319.4L118.4,345c-5.4-2.5-11.4-3.9-17.7-3.9c-23.3,0-42.1,18.9-42.1,42.1c0,23.3,18.9,42.1,42.1,42.1
			c23.3,0,42.1-18.9,42.1-42.1c0-6.3-1.4-12.3-3.9-17.7l25.7-25.7C157,333.9,150.1,327,144,319.4z"/>
		<path d="M256.5,402.3v-29.4V366c-4.8,0.6-9.6,0.9-14.5,0.9s-9.8-0.3-14.5-0.9v6.9v29.4c-16.1,5.9-27.6,21.4-27.6,39.6
			c0,23.3,18.9,42.1,42.1,42.1c23.3,0,42.1-18.9,42.1-42.1C284.1,423.6,272.6,408.2,256.5,402.3z"/>
	</g>
</g>
</svg>