<?xml version="1.0" encoding="UTF-8" standalone="no"?>
<svg width="148px" height="50px" viewBox="0 0 148 50" version="1.1" xmlns="http://www.w3.org/2000/svg" xmlns:xlink="http://www.w3.org/1999/xlink">
    <!-- Generator: Sketch 39.1 (31720) - http://www.bohemiancoding.com/sketch -->
    <title>logo 8</title>
    <desc>Created with Sketch.</desc>
    <defs></defs>
    <g id="Page-1" stroke="none" stroke-width="1" fill="none" fill-rule="evenodd">
        <g id="Desktop-HD" transform="translate(-1112.000000, -925.000000)" fill="#313048">
            <g id="logo-8" transform="translate(1112.000000, 925.000000)">
                <path d="M11.2023434,35.8848592 L16.614117,30.425 L27.6087019,30.425 L31.8246075,45.3559859 L11.2023434,35.8848592 Z M3.62851321,16.946831 L13.6841358,18.2376761 L13.6841358,28.9933099 C13.6841358,29.0975352 13.6960038,29.1996479 13.7169472,29.2975352 L8.92928679,34.1271127 L3.62851321,16.946831 Z M13.6841358,15.3503521 L4.66660755,14.1926056 L13.6841358,5.09683099 L13.6841358,15.3503521 Z M33.4965887,8.29542254 L25.1534377,16.8235915 L16.5233623,15.7151408 L16.5233623,3.65387324 L33.4965887,8.29542254 Z M16.5233623,27.5609155 L16.5233623,18.6024648 L24.5621358,19.6348592 L26.8002868,27.5609155 L16.5233623,27.5609155 Z M40.2229094,27.5609155 L29.7526075,27.5609155 L27.2631358,18.7447183 L35.5713811,10.2517606 L40.2229094,27.5609155 Z M34.2966264,43.6538732 L30.5610226,30.425 L39.8717585,30.425 L34.2966264,43.6538732 Z M43.4488906,28.618662 L37.6964377,7.21021127 C37.5644943,6.7193662 37.1840226,6.33556338 36.6974377,6.20246479 L15.4747962,0.399647887 C15.0482491,0.282746479 14.591683,0.373591549 14.2412302,0.64471831 C14.2174943,0.662323944 14.1972491,0.682746479 14.1749094,0.701760563 L14.0995132,0.626408451 L0.612664151,14.2320423 L0.614060377,14.2334507 C0.584739623,14.2630282 0.555418868,14.2919014 0.528192453,14.3242958 C0.218230189,14.6975352 0.117003774,15.2045775 0.260815094,15.6700704 L6.66321132,36.4221831 C6.78398491,36.8116197 7.06253208,37.1306338 7.43043774,37.2996479 L33.442834,49.246831 C33.6313245,49.3334507 33.831683,49.3757042 34.0306453,49.3757042 C34.3643434,49.3757042 34.6945509,49.2566901 34.9570415,49.0285211 C35.1259849,48.8827465 35.2516453,48.7010563 35.3354189,48.5024648 L35.3375132,48.5038732 L43.1822113,29.8911972 C43.1898906,29.881338 43.198966,29.8728873 43.2059472,29.8630282 C43.4747208,29.5088028 43.5640792,29.0489437 43.4488906,28.618662 L43.4488906,28.618662 Z" id="Fill-96"></path>
                <path d="M66.6400019,20.4819718 L64.2880585,27.0298592 L68.9926434,27.0298592 L66.6400019,20.4819718 Z M70.8021528,32.4608451 L69.8743604,29.8819718 L63.4056434,29.8819718 L62.4555113,32.4608451 L58.7911151,32.4608451 L64.6266434,17.241831 L68.6533604,17.241831 L74.4658509,32.4608451 L70.8021528,32.4608451 Z" id="Fill-97"></path>
                <path d="M83.4226434,24.8627465 C83.4226434,20.1852817 86.9285679,16.9909155 91.4523415,16.9909155 C94.7767566,16.9909155 96.6993604,18.8162676 97.7625868,20.7099296 L95.0029453,22.0789437 C94.3697566,20.8472535 93.0126245,19.8655634 91.4523415,19.8655634 C88.7150396,19.8655634 86.7247189,21.9880986 86.7247189,24.8627465 C86.7247189,27.7373944 88.7150396,29.8592254 91.4523415,29.8592254 C93.0126245,29.8592254 94.3697566,28.9014789 95.0029453,27.6458451 L97.7625868,28.9923239 C96.6770208,30.8859859 94.7767566,32.7345775 91.4523415,32.7345775 C86.9285679,32.7345775 83.4226434,29.5402113 83.4226434,24.8627465" id="Fill-98"></path>
                <polygon id="Fill-99" points="121.851262 32.460493 121.851262 21.8048592 117.599055 32.460493 116.196545 32.460493 111.944338 21.8048592 111.944338 32.460493 108.732319 32.460493 108.732319 17.2421831 113.233753 17.2421831 116.898149 26.4365493 120.561847 17.2421831 125.085621 17.2421831 125.085621 32.460493"></polygon>
                <polygon id="Fill-100" points="137.11837 32.460493 137.11837 17.2421831 147.794615 17.2421831 147.794615 20.0935915 140.330389 20.0935915 140.330389 23.3111972 147.636143 23.3111972 147.636143 26.1633099 140.330389 26.1633099 140.330389 29.6083803 147.794615 29.6083803 147.794615 32.460493"></polygon>
            </g>
        </g>
    </g>
</svg>