<?xml version="1.0" encoding="UTF-8" standalone="no"?>
<svg width="135px" height="30px" viewBox="0 0 135 30" version="1.1" xmlns="http://www.w3.org/2000/svg" xmlns:xlink="http://www.w3.org/1999/xlink">
    <!-- Generator: Sketch 39.1 (31720) - http://www.bohemiancoding.com/sketch -->
    <title>logo 6</title>
    <desc>Created with Sketch.</desc>
    <defs></defs>
    <g id="Page-1" stroke="none" stroke-width="1" fill="none" fill-rule="evenodd">
        <g id="Desktop-HD" transform="translate(-1118.000000, -682.000000)" fill="#313048">
            <g id="logo-6" transform="translate(1118.000000, 681.000000)">
                <path d="M127.932295,28.4208 C127.560171,28.2038 127.083124,28.3320273 126.867684,28.7068455 C126.676725,29.0400955 126.321389,29.2465273 125.940171,29.2465273 C125.349808,29.2465273 124.869264,28.7625045 124.869264,28.1678682 L124.869264,26.4896409 L124.869264,26.4875273 C124.869264,25.8928909 125.349808,25.4095727 125.940171,25.4095727 C126.296207,25.4095727 126.628461,25.5871182 126.828513,25.8851409 C126.978902,26.1098909 127.22442,26.2310727 127.474834,26.2310727 C127.625223,26.2310727 127.776311,26.1873909 127.910611,26.0965045 C128.266648,25.8534364 128.360378,25.3658909 128.119756,25.0065727 C127.62942,24.2759591 126.814523,23.8398455 125.940171,23.8398455 C124.575482,23.8398455 123.451415,24.8931409 123.324109,26.2345955 C123.317114,26.2768682 123.311518,26.3191409 123.311518,26.3635273 L123.311518,28.4038909 C123.311518,28.4968909 123.330404,28.5842545 123.359782,28.6673909 C123.59201,29.8890727 124.660119,30.8162545 125.940171,30.8162545 C126.875378,30.8162545 127.747632,30.3089818 128.216285,29.4931182 C128.432425,29.1175955 128.305119,28.6378 127.932295,28.4208" id="Fill-43"></path>
                <path d="M131.829808,29.2411023 C131.817218,29.2411023 131.806026,29.2439205 131.793435,29.244625 C131.21986,29.2256023 130.758902,28.7507386 130.758902,28.1680795 L130.758902,26.4877386 C130.758902,25.8931023 131.239446,25.4090795 131.829808,25.4090795 C132.186544,25.4090795 132.518098,25.5873295 132.71815,25.8853523 C132.837062,26.0636023 132.900715,26.2714432 132.900715,26.4877386 L132.900715,28.1624432 C132.900715,28.3787386 132.837062,28.5872841 132.71815,28.7648295 C132.518098,29.0628523 132.186544,29.2411023 131.829808,29.2411023 M134.451466,26.291875 C134.451466,26.2876477 134.450767,26.2834205 134.450067,26.2791932 C134.447269,26.253125 134.44657,26.2263523 134.441674,26.2009886 C134.395508,25.7740341 134.250016,25.3653977 134.009394,25.0067841 C133.519057,24.2761705 132.704161,23.8400568 131.829808,23.8400568 C130.46442,23.8400568 129.338953,24.8947614 129.213746,26.237625 C129.206751,26.2784886 129.201155,26.3200568 129.201155,26.3630341 L129.201155,28.4033977 C129.201155,28.4963977 129.220041,28.5844659 129.24942,28.6676023 C129.481648,29.8892841 130.549756,30.8157614 131.829808,30.8157614 C131.856389,30.8157614 131.882269,30.8108295 131.90815,30.8080114 C132.753124,30.7826477 133.533746,30.3521705 134.009394,29.6441023 C134.206648,29.3496023 134.340249,29.0212841 134.407399,28.6767614 C134.438876,28.5915114 134.458461,28.4999205 134.458461,28.4033977 L134.458461,26.3630341 C134.458461,26.3390795 134.453565,26.3158295 134.451466,26.291875" id="Fill-44"></path>
                <path d="M61.7352202,26.1158795 L61.7240285,26.1060159 C61.6897539,26.1475841 61.6575777,26.1905614 61.6219041,26.2300159 L61.7352202,26.1158795 Z" id="Fill-45"></path>
                <path d="M90.7609896,27.3288955 C88.9241503,27.3288955 87.4349534,25.8289182 87.4349534,23.9787818 L87.4349534,9.04735 C87.4349534,6.50887273 85.384772,4.44314545 82.8645389,4.44314545 C80.7905751,4.44314545 79.0383731,5.84237273 78.480886,7.75169091 C78.8893834,7.63121364 79.3202642,7.56287273 79.7665337,7.56287273 C82.2874663,7.56287273 84.3376477,9.6286 84.3376477,12.1670773 L84.3376477,27.0985091 C84.3376477,28.9486455 85.8268446,30.4486227 87.6636839,30.4486227 C88.5226477,30.4486227 89.3032694,30.1174864 89.8936321,29.5792136 L89.9237098,29.6073955 L93.3791503,26.1156682 L93.3336839,26.0783273 C92.7237358,26.8350091 91.8046166,27.3288955 90.7609896,27.3288955" id="Fill-46"></path>
                <path d="M71.6415622,17.2785545 L71.6415622,9.04735 C71.6415622,6.50887273 69.5913808,4.44314545 67.0704482,4.44314545 C64.9971839,4.44314545 63.2449819,5.84237273 62.6874948,7.75169091 C63.0959922,7.63121364 63.5268731,7.56357727 63.9731425,7.56357727 C66.4940751,7.56357727 68.5442565,9.6286 68.5442565,12.1670773 L68.5442565,20.3982818 C68.5442565,22.2484182 70.0327539,23.7483955 71.8702927,23.7483955 C72.5606813,23.7483955 73.2014067,23.5363273 73.7337124,23.1734864 L73.7560959,23.1953273 L73.9064845,23.0431455 C74.1296192,22.8691227 74.3289715,22.6669182 74.501044,22.4421682 L77.0261736,19.8910091 C76.4581943,20.3461455 75.7496192,20.6286682 74.9675984,20.6286682 C73.1300596,20.6286682 71.6415622,19.1286909 71.6415622,17.2785545" id="Fill-47"></path>
                <path d="M55.8478912,23.9787818 L55.8478912,8.56825909 C55.8478912,8.40198636 55.8730725,8.24346364 55.8961554,8.08353182 C56.0612332,6.12700909 56.7320363,4.31703182 57.7616736,2.76985 C55.0001192,4.63125909 53.0954301,7.68687273 52.7988497,11.2032591 C52.7757668,11.3631909 52.7505855,11.5224182 52.7505855,11.6879864 L52.7505855,27.0985091 C52.7505855,28.9486455 54.2390829,30.4486227 56.0766218,30.4486227 C56.9215959,30.4486227 57.6910259,30.1287591 58.2778912,29.6052818 L58.2799896,29.6073955 L58.3191606,29.5672364 C58.3940052,29.4981909 58.4660518,29.4256227 58.534601,29.3502364 L61.4129689,26.4411682 C60.8212073,26.9871909 60.039886,27.3288955 59.1739275,27.3288955 C57.3370881,27.3288955 55.8478912,25.8289182 55.8478912,23.9787818" id="Fill-48"></path>
                <path d="M49.9494404,23.2268909 C49.9550363,23.22055 49.9578342,23.2149136 49.9634301,23.2085727 C49.9403472,23.2381636 49.9151658,23.2656409 49.8920829,23.2945273 C49.9109689,23.2719818 49.9305544,23.2494364 49.9494404,23.2268909" id="Fill-49"></path>
                <path d="M41.1022539,27.5775295 C35.6379016,27.5775295 31.0786788,23.6215068 30.086114,18.4043477 C29.9602073,18.0513705 29.8797668,17.6758477 29.8797668,17.2784841 L29.8797668,8.56818864 C29.8797668,8.380075 29.9049482,8.19830227 29.9343264,8.01793864 C30.1539637,5.70139318 31.0786788,3.59339318 32.4776425,1.89543864 L30.8422539,3.52646136 C30.3463212,3.94143864 29.8874611,4.40080227 29.469171,4.89468864 L29.4628756,4.90102955 L29.4628756,4.90173409 C28.0135492,6.61730227 27.0615544,8.77180227 26.8370207,11.1376659 C26.8076425,11.3180295 26.7817617,11.4998023 26.7817617,11.6879159 L26.7817617,20.3982114 C26.7817617,20.795575 26.8629016,21.1710977 26.9888083,21.524075 C27.9813731,26.7412341 32.5405959,30.6972568 38.0049482,30.6972568 C40.3796891,30.6972568 42.6558031,29.9271886 44.5346114,28.5737568 L44.5367098,28.5793932 C44.5367098,28.5793932 44.5590933,28.561075 44.5975648,28.5286659 C45.149456,28.1256659 45.6649741,27.6719386 46.1385233,27.1710068 C47.0779275,26.3100523 48.2866321,25.1412114 49.3624352,23.9160068 C47.2590933,26.2142341 44.2667098,27.5775295 41.1022539,27.5775295" id="Fill-50"></path>
                <path d="M50.1082228,23.0106659 C50.0963316,23.0261659 50.0858394,23.043075 50.0739482,23.058575 C50.0851399,23.043075 50.0984301,23.0261659 50.1082228,23.0106659" id="Fill-51"></path>
                <path d="M50.558899,6.27862727 L50.5463083,6.27299091 C50.5393135,6.28567273 50.5337176,6.29905909 50.5267228,6.31174091 L50.558899,6.27862727 Z" id="Fill-52"></path>
                <path d="M44.8954041,6.52803636 C44.0413368,5.25562727 42.623487,4.49542273 41.1028135,4.49542273 C39.0295492,4.49542273 37.2766477,5.89465 36.7198601,7.80396818 C37.127658,7.68349091 37.5585389,7.61585455 38.0055078,7.61585455 C39.5261813,7.61585455 40.9433316,8.37535455 41.7980984,9.64776364 C42.4402228,10.6059455 43.4887461,11.1223773 44.5568549,11.1223773 C45.1975803,11.1223773 45.8453005,10.9363773 46.4160777,10.5481727 C46.8021917,10.2853773 47.1148601,9.95565 47.351285,9.58435455 L49.354601,7.52003636 C48.8229948,7.8399 48.2375285,8.00265 47.6541606,8.00265 C46.5860518,8.00265 45.5375285,7.48621818 44.8954041,6.52803636" id="Fill-53"></path>
                <path d="M14.5446762,4.44335682 C12.4707124,4.44335682 10.7185104,5.84258409 10.1610233,7.75190227 C10.5695207,7.63072045 11.0004016,7.56308409 11.4473705,7.56308409 C13.9676036,7.56308409 16.017785,9.62881136 16.017785,12.1672886 L16.017785,14.5458341 L19.1150907,14.5458341 L19.1150907,9.04756136 C19.1150907,6.50908409 17.0649093,4.44335682 14.5446762,4.44335682" id="Fill-54"></path>
                <path d="M25.0025596,26.1158795 L24.9913679,26.1060159 C24.9570933,26.1475841 24.9249171,26.1905614 24.8892435,26.2300159 L25.0025596,26.1158795 Z" id="Fill-56"></path>
                <path d="M3.32169948,23.9787818 L3.32169948,8.56825909 C3.32169948,8.40198636 3.34688083,8.24346364 3.36996373,8.08353182 C3.56721762,5.75078182 4.47794301,3.62516818 5.86921244,1.9096 L4.47164767,3.32503182 C3.79454922,3.86894091 3.18180311,4.48964545 2.64460104,5.17446364 L2.63900518,5.1801 L2.63970466,5.18080455 C1.31978238,6.86819091 0.46361658,8.94166818 0.272658031,11.2032591 C0.24957513,11.3631909 0.224393782,11.5224182 0.224393782,11.6879864 L0.224393782,27.0985091 C0.224393782,28.9486455 1.71289119,30.4486227 3.55043005,30.4486227 C4.39540415,30.4486227 5.1648342,30.1287591 5.75169948,29.6052818 L5.75379793,29.6073955 L5.79296891,29.5679409 C5.86781347,29.4981909 5.9398601,29.4256227 6.00840933,29.3502364 L8.88747668,26.4411682 C8.29571503,26.9871909 7.5136943,27.3288955 6.64773575,27.3288955 C4.81089637,27.3288955 3.32169948,25.8289182 3.32169948,23.9787818" id="Fill-57"></path>
                <path d="M19.1151606,23.9787818 L19.1151606,21.2465545 L9.97363212,21.2465545 L9.97363212,23.9787818 C9.97363212,24.1112364 9.94984974,24.23735 9.93516062,24.3662818 L16.0178549,24.3662818 L16.0178549,27.0985091 C16.0178549,28.9486455 17.5070518,30.4486227 19.3438912,30.4486227 C20.1888653,30.4486227 20.9582953,30.1287591 21.5451606,29.6052818 L21.5472591,29.6073955 L21.5864301,29.5672364 C21.6612746,29.4981909 21.7333212,29.4256227 21.8018705,29.3502364 L24.6802383,26.4411682 C24.0884767,26.9871909 23.3071554,27.3288955 22.4411969,27.3288955 C20.6043575,27.3288955 19.1151606,25.8289182 19.1151606,23.9787818" id="Fill-58"></path>
                <path d="M9.2090285,26.1158795 L9.19713731,26.1060159 C9.16356218,26.1475841 9.13138601,26.1905614 9.09571244,26.2307205 L9.2090285,26.1158795 Z" id="Fill-59"></path>
                <path d="M118.059948,14.9369977 L105.592383,14.9369977 L105.592383,16.1227477 C105.592383,16.8139068 105.749067,17.467725 106.021166,18.056725 L114.386269,18.056725 C115.19557,17.0034295 116.532979,16.5504068 117.790648,16.8604068 L120.617953,13.7279977 L120.60956,13.7139068 C119.999611,14.4550886 119.090285,14.9369977 118.059948,14.9369977" id="Fill-60"></path>
                <path d="M113.955109,6.37754545 C113.101741,5.10513636 111.683891,4.34493182 110.163218,4.34493182 C108.087155,4.34493182 106.349642,5.75331818 105.794953,7.66545455 C106.200653,7.54638636 106.62244,7.46536364 107.065912,7.46536364 C107.978036,7.46536364 108.85099,7.74295455 109.589642,8.23684091 L114.677674,8.23684091 C114.575549,7.57175 114.33213,6.93906818 113.955109,6.37754545" id="Fill-61"></path>
                <path d="M110.163288,27.4270386 C104.832536,27.4270386 100.366345,23.6605386 99.228987,18.6329023 C99.0464223,18.217925 98.9408005,17.7613795 98.9408005,17.2787659 L98.9408005,8.56847045 C98.9408005,8.43601591 98.9645829,8.31131136 98.9785725,8.18308409 C99.1387539,5.794675 100.045982,3.61410682 101.454039,1.85837955 L100.030593,3.27662955 C97.6719404,5.20074318 96.0988057,8.06683409 95.8812668,11.3028114 C95.8672772,11.4310386 95.8427953,11.5564477 95.8427953,11.6881977 L95.8427953,20.3984932 C95.8427953,20.8811068 95.9491166,21.3376523 96.1316813,21.7526295 C97.2690389,26.7802659 101.734531,30.5467659 107.065982,30.5467659 C107.070878,30.5467659 107.075075,30.5453568 107.079972,30.5453568 C109.372873,30.5425386 111.574142,29.8231977 113.41308,28.5529023 L113.422174,28.579675 C113.422174,28.579675 113.517303,28.5000614 113.68378,28.3584477 C114.251759,27.9406523 114.781966,27.4686068 115.266008,26.9472432 C116.076008,26.1961977 117.046189,25.2506977 117.950619,24.2516523 C115.886448,26.2504477 113.106707,27.4214023 110.177977,27.4256295 C110.17308,27.4256295 110.168184,27.4270386 110.163288,27.4270386" id="Fill-62"></path>
                <path d="M24.8893135,26.2302273 L24.6801684,26.4415909 C24.753614,26.3739545 24.8221632,26.3042045 24.8893135,26.2302273" id="Fill-63"></path>
                <path d="M9.09564249,26.2304386 L8.88719689,26.4410977 C8.95994301,26.3741659 9.02919171,26.3037114 9.09564249,26.2304386" id="Fill-64"></path>
                <path d="M61.622044,26.2302273 L61.412899,26.4415909 C61.4863446,26.3739545 61.5548938,26.3042045 61.622044,26.2302273" id="Fill-65"></path>
                <path d="M50.0739482,23.0587864 C50.0403731,23.1066955 50.005399,23.1560136 49.9634301,23.20815 C50.0012021,23.1595364 50.0368756,23.1088091 50.0739482,23.0587864" id="Fill-66"></path>
                <path d="M49.8922228,23.2946682 C49.7208497,23.5025091 49.5431813,23.7096455 49.3620155,23.9160773 C49.5459793,23.7159864 49.7229482,23.50885 49.8922228,23.2946682" id="Fill-67"></path>
            </g>
        </g>
    </g>
</svg>