<?xml version="1.0" encoding="UTF-8" standalone="no"?>
<svg width="70px" height="88px" viewBox="0 0 70 88" version="1.1" xmlns="http://www.w3.org/2000/svg" xmlns:xlink="http://www.w3.org/1999/xlink">
    <!-- Generator: Sketch 39.1 (31720) - http://www.bohemiancoding.com/sketch -->
    <title>logo 3</title>
    <desc>Created with Sketch.</desc>
    <defs></defs>
    <g id="Page-1" stroke="none" stroke-width="1" fill="none" fill-rule="evenodd">
        <g id="Desktop-HD" transform="translate(-836.000000, -406.000000)">
            <g id="logo-3" transform="translate(836.000000, 406.000000)">
                <path d="M58.48381,50.0057206 C58.77571,48.5243873 58.93041,46.9941651 58.93041,45.4290222 C58.93041,41.5123238 57.97141,37.814927 56.27741,34.5568317 C57.97141,31.2994349 58.93041,27.6020381 58.93041,23.6853397 C58.93041,22.1194984 58.77571,20.5899746 58.48381,19.1086413 C63.02191,22.7403873 65.93531,28.314419 65.93531,34.5568317 C65.93531,40.7999429 63.02191,46.3732762 58.48381,50.0057206 L58.48381,50.0057206 Z M35.19131,65.2311175 C28.93401,65.2311175 23.34801,62.3243238 19.70731,57.7965143 C21.19201,58.0877524 22.72571,58.2421016 24.29441,58.2421016 C28.22071,58.2421016 31.92581,57.2852762 35.19131,55.5951175 C38.45681,57.2852762 42.16191,58.2421016 46.08821,58.2421016 C47.65691,58.2421016 49.19061,58.0877524 50.67531,57.7965143 C47.03461,62.3243238 41.44861,65.2311175 35.19131,65.2311175 L35.19131,65.2311175 Z M4.44731,34.5568317 C4.44731,28.314419 7.36071,22.7403873 11.89881,19.1086413 C11.60691,20.5899746 11.45221,22.1194984 11.45221,23.6853397 C11.45221,27.6020381 12.41121,31.2994349 14.10521,34.5568317 C12.41121,37.814927 11.45221,41.5123238 11.45221,45.4290222 C11.45221,46.9941651 11.60691,48.5243873 11.89881,50.0057206 C7.36071,46.3732762 4.44731,40.7999429 4.44731,34.5568317 L4.44731,34.5568317 Z M47.58691,39.1335302 C47.87881,37.6521968 48.03351,36.122673 48.03351,34.5568317 C48.03351,32.9916889 47.87881,31.4614667 47.58761,29.9801333 C49.20811,31.2777841 50.62071,32.8219746 51.76801,34.5568317 C50.62071,36.2923873 49.20811,37.8365778 47.58691,39.1335302 L47.58691,39.1335302 Z M30.60421,46.9250222 C32.08891,47.2162603 33.62261,47.3706095 35.19131,47.3706095 C36.76001,47.3706095 38.29371,47.2162603 39.77841,46.9250222 C38.47851,48.5418476 36.93081,49.9519429 35.19131,51.0959429 C33.45181,49.9519429 31.90411,48.5418476 30.60421,46.9250222 L30.60421,46.9250222 Z M22.79571,29.9801333 C22.50311,31.4614667 22.34911,32.9916889 22.34911,34.5568317 C22.34911,36.122673 22.50311,37.6521968 22.79571,39.1335302 C21.17451,37.8365778 19.76191,36.2923873 18.61461,34.5568317 C19.76191,32.8219746 21.17451,31.2777841 22.79571,29.9801333 L22.79571,29.9801333 Z M44.14221,34.5568317 C44.14221,37.1975302 43.61721,39.7167048 42.67291,42.0221651 C40.36221,42.9643238 37.83731,43.4874349 35.19131,43.4874349 C32.54531,43.4874349 30.02041,42.9643238 27.70971,42.0221651 C26.76541,39.7167048 26.24041,37.1975302 26.24041,34.5568317 C26.24041,31.9168317 26.76541,29.3976571 27.70971,27.0921968 C30.02041,26.1500381 32.54531,25.626927 35.19131,25.626927 C37.83731,25.626927 40.36221,26.1500381 42.67291,27.0921968 C43.61721,29.3976571 44.14221,31.9168317 44.14221,34.5568317 L44.14221,34.5568317 Z M39.77841,22.1893397 C38.29371,21.8981016 36.76001,21.7437524 35.19131,21.7437524 C33.62261,21.7437524 32.08891,21.8981016 30.60421,22.1893397 C31.90411,20.5718159 33.45181,19.162419 35.19131,18.0177206 C36.93081,19.162419 38.47851,20.5718159 39.77841,22.1893397 L39.77841,22.1893397 Z M15.34421,23.6853397 C15.34421,21.0446413 15.86851,18.5254667 16.81281,16.2200063 C19.12351,15.278546 21.64841,14.7547365 24.29441,14.7547365 C26.76331,14.7547365 29.12651,15.2108 31.30911,16.0363238 C28.57001,18.2160698 26.32371,20.9873714 24.76481,24.154673 C21.59101,25.7093397 18.81341,27.950546 16.62801,30.6834349 C15.80061,28.5064825 15.34421,26.1486413 15.34421,23.6853397 L15.34421,23.6853397 Z M15.34421,45.4290222 C15.34421,42.9657206 15.80061,40.6078794 16.62801,38.430927 C18.81341,41.1638159 21.59101,43.4050222 24.76481,44.9596889 C26.32371,48.1269905 28.57001,50.8975937 31.30911,53.0780381 C29.12651,53.9035619 26.76331,54.3596254 24.29441,54.3596254 C21.64841,54.3596254 19.12351,53.8358159 16.81281,52.8936571 C15.86851,50.5881968 15.34421,48.0690222 15.34421,45.4290222 L15.34421,45.4290222 Z M55.03841,45.4290222 C55.03841,48.0690222 54.51411,50.5881968 53.56981,52.8936571 C51.25911,53.8358159 48.73421,54.3596254 46.08821,54.3596254 C43.61931,54.3596254 41.25611,53.9035619 39.07351,53.0780381 C41.81261,50.8975937 44.05891,48.1269905 45.61781,44.9596889 C48.79161,43.4050222 51.56921,41.1638159 53.75461,38.430927 C54.58201,40.6078794 55.03841,42.9657206 55.03841,45.4290222 L55.03841,45.4290222 Z M55.03841,23.6853397 C55.03841,26.1486413 54.58201,28.5064825 53.75461,30.6834349 C51.56921,27.950546 48.79161,25.7093397 45.61781,24.154673 C44.05891,20.9873714 41.81261,18.2160698 39.07351,16.0363238 C41.25611,15.2108 43.61931,14.7547365 46.08821,14.7547365 C48.73421,14.7547365 51.25911,15.278546 53.56981,16.2200063 C54.51411,18.5254667 55.03841,21.0446413 55.03841,23.6853397 L55.03841,23.6853397 Z M35.19131,3.88324444 C41.44861,3.88324444 47.03461,6.78933968 50.67531,11.3171492 C49.19061,11.0259111 47.65691,10.8722603 46.08821,10.8722603 C42.16191,10.8722603 38.45681,11.8283873 35.19131,13.5192444 C31.92581,11.8283873 28.22071,10.8722603 24.29441,10.8722603 C22.72571,10.8722603 21.19201,11.0259111 19.70731,11.3171492 C23.34801,6.78933968 28.93401,3.88324444 35.19131,3.88324444 L35.19131,3.88324444 Z M69.82661,34.5568317 C69.82661,25.2274349 64.39111,17.1412127 56.51401,13.2824825 C52.64721,5.42324444 44.54261,6.98412697e-05 35.19131,6.98412697e-05 C25.84001,6.98412697e-05 17.73541,5.42324444 13.86861,13.2824825 C5.99151,17.1412127 0.55601,25.2274349 0.55601,34.5568317 C0.55601,43.886927 5.99151,51.9731492 13.86861,55.8318794 C17.73541,63.6911175 25.84001,69.1142921 35.19131,69.1142921 C44.54261,69.1142921 52.64721,63.6911175 56.51401,55.8318794 C64.39111,51.9731492 69.82661,43.886927 69.82661,34.5568317 L69.82661,34.5568317 Z" id="Fill-1" fill="#313048"></path>
                <path d="M5.71942,86.3776571 C6.54962,86.3776571 7.33852,85.7560698 7.58772,85.3419111 L7.58772,84.0170222 C7.46312,83.9339111 6.88142,83.6852762 6.13452,83.6852762 C5.13842,83.6852762 4.45312,84.2034984 4.45312,85.0520698 C4.45312,85.7979746 4.95152,86.3776571 5.71942,86.3776571 M5.96862,82.4015937 C6.84012,82.4015937 7.60802,82.6502286 7.60802,82.6502286 C7.62902,81.3455937 7.37982,80.8280698 6.32142,80.8280698 C5.36662,80.8280698 4.43212,81.0760063 3.99672,81.2003238 C3.74752,81.2624825 3.60262,81.0969587 3.54032,80.8692762 L3.37372,80.102419 C3.31142,79.8335302 3.45702,79.6889587 3.64392,79.6268 C3.78882,79.5646413 4.97182,79.1504825 6.50832,79.1504825 C9.16482,79.1504825 9.41402,80.7652127 9.41402,82.8367048 L9.41402,87.247181 C9.41402,87.4546095 9.22712,87.6410857 9.01922,87.6410857 L8.43822,87.6410857 C8.25132,87.6410857 8.16872,87.5579746 8.08542,87.350546 L7.87822,86.7918159 C7.42112,87.226927 6.61192,87.8478159 5.32462,87.8478159 C3.76852,87.8478159 2.64712,86.7918159 2.64712,85.0730222 C2.64712,83.5609587 3.85112,82.4015937 5.96862,82.4015937" id="Fill-3" fill="#646384"></path>
                <path d="M15.7647,79.1502032 C17.031,79.1502032 18.0061,79.667727 18.7747,80.6203619 C18.9196,80.8068381 18.8783,81.055473 18.6914,81.2000444 L18.0061,81.8216317 C17.7569,82.0493143 17.612,81.8837905 17.4461,81.7385206 C17.0723,81.3243619 16.4703,80.9521079 15.7857,80.9521079 C14.4361,80.9521079 13.3777,82.0905206 13.3777,83.499219 C13.3777,84.9281714 14.4158,86.0672825 15.7647,86.0672825 C16.8231,86.0672825 17.2592,85.5288063 17.6953,85.1146476 C17.8815,84.9281714 18.0684,84.9281714 18.2553,85.0727429 L18.816,85.5288063 C19.0232,85.6943302 19.1065,85.9010603 18.9609,86.1084889 C18.2966,87.1644889 17.1759,87.8475365 15.7437,87.8475365 C13.419,87.8475365 11.4058,86.0044254 11.4058,83.5201714 C11.4058,81.0764254 13.461,79.1502032 15.7647,79.1502032" id="Fill-5" fill="#646384"></path>
                <path d="M21.0364,79.7508381 C21.0364,79.5441079 21.2233,79.3569333 21.4305,79.3569333 L22.0115,79.3569333 C22.1991,79.3569333 22.3027,79.4609968 22.365,79.6055683 L22.5932,80.3102667 C22.7801,80.1237905 23.7349,79.1502032 25.333,79.1502032 C26.5363,79.1502032 27.4085,79.6265206 28.0105,80.4757905 C28.2387,80.2481079 29.4427,79.1502032 31.0198,79.1502032 C33.5524,79.1502032 34.4442,80.9311556 34.4442,83.0850603 L34.4442,87.2476 C34.4442,87.4543302 34.2783,87.6408063 34.0501,87.6408063 L32.8881,87.6408063 C32.6599,87.6408063 32.4933,87.4543302 32.4933,87.2476 L32.4933,83.0019492 C32.4933,81.6973143 31.892,80.9521079 30.7706,80.9521079 C29.505,80.9521079 28.7784,81.8425841 28.6328,81.9662032 C28.6748,82.1533778 28.6951,82.5465841 28.6951,82.9607429 L28.6951,87.2476 C28.6951,87.4543302 28.5082,87.6408063 28.301,87.6408063 L27.2006,87.6408063 C26.9724,87.6408063 26.8065,87.4543302 26.8065,87.2476 L26.8065,83.0019492 C26.8065,81.6763619 26.2045,80.9521079 25.0425,80.9521079 C23.7972,80.9521079 23.0909,81.9249968 22.9873,82.1945841 L22.9873,87.2476 C22.9873,87.4543302 22.8004,87.6408063 22.5932,87.6408063 L21.4305,87.6408063 C21.2233,87.6408063 21.0364,87.4543302 21.0364,87.2476 L21.0364,79.7508381 Z" id="Fill-7" fill="#646384"></path>
                <path d="M42.47656,82.5878603 C42.41426,81.594019 41.58406,80.7447492 40.56696,80.7447492 C39.44626,80.7447492 38.57476,81.5521143 38.45016,82.5878603 L42.47656,82.5878603 Z M40.58796,79.150273 C42.74606,79.150273 44.40716,80.7657016 44.40716,82.9817651 C44.40716,83.1263365 44.38616,83.3952254 44.36516,83.5404952 C44.34486,83.7479238 44.17896,83.8924952 43.99206,83.8924952 L38.34656,83.8924952 C38.40886,85.010654 39.38396,86.1085587 40.73286,86.1085587 C41.48046,86.1085587 42.16576,85.7768127 42.58016,85.5079238 C42.82936,85.362654 42.97496,85.2802413 43.14086,85.4869714 L43.72186,86.2740825 C43.86746,86.4396063 43.92976,86.6051302 43.68056,86.8125587 C43.07856,87.3300825 41.99916,87.8476063 40.60826,87.8476063 C38.09736,87.8476063 36.43696,85.8808762 36.43696,83.4992889 C36.43696,81.1589079 38.09736,79.150273 40.58796,79.150273 L40.58796,79.150273 Z" id="Fill-9" fill="#646384"></path>
                <path d="M54.70101,79.1502032 C55.96731,79.1502032 56.94241,79.667727 57.71101,80.6203619 C57.85591,80.8068381 57.81461,81.055473 57.62771,81.2000444 L56.94241,81.8216317 C56.69321,82.0493143 56.54831,81.8837905 56.38241,81.7385206 C56.00861,81.3243619 55.40661,80.9521079 54.72201,80.9521079 C53.37241,80.9521079 52.31401,82.0905206 52.31401,83.499219 C52.31401,84.9281714 53.35211,86.0672825 54.70101,86.0672825 C55.75941,86.0672825 56.19551,85.5288063 56.63161,85.1146476 C56.81781,84.9281714 57.00471,84.9281714 57.19161,85.0727429 L57.75231,85.5288063 C57.95951,85.6943302 58.04281,85.9010603 57.89721,86.1084889 C57.23291,87.1644889 56.11221,87.8475365 54.68001,87.8475365 C52.35531,87.8475365 50.34211,86.0044254 50.34211,83.5201714 C50.34211,81.0764254 52.39731,79.1502032 54.70101,79.1502032" id="Fill-11" fill="#646384"></path>
                <path d="M63.54236,86.0669333 C64.84996,86.0669333 65.88806,84.9068698 65.88806,83.4786159 C65.88806,82.0908698 64.84996,80.9517587 63.54236,80.9517587 C62.23476,80.9517587 61.19666,82.0908698 61.19666,83.4786159 C61.19666,84.9068698 62.23476,86.0669333 63.54236,86.0669333 M63.54236,79.149854 C65.86706,79.149854 67.73536,81.1382349 67.73536,83.4786159 C67.73536,85.8602032 65.86706,87.8478857 63.54236,87.8478857 C61.21766,87.8478857 59.35006,85.8602032 59.35006,83.4786159 C59.35006,81.1382349 61.21766,79.149854 63.54236,79.149854" id="Fill-13" fill="#646384"></path>
            </g>
        </g>
    </g>
</svg>