<svg width="97" height="96" viewBox="0 0 97 96" fill="none" xmlns="http://www.w3.org/2000/svg">
<path d="M68.0381 0H28.9618C24.8699 0 21.5411 3.329 21.5411 7.42074V88.5793C21.5411 92.671 24.8701 96 28.9618 96H68.0381C72.1299 96 75.4589 92.671 75.4589 88.5793V7.42074C75.4589 3.329 72.1299 0 68.0381 0ZM24.3591 14.8415H72.6409V81.1585H24.3591V14.8415ZM28.9618 2.818H68.0381C70.576 2.818 72.6409 4.88285 72.6409 7.42074V12.0235H24.3591V7.42074C24.3591 4.88285 26.4237 2.818 28.9618 2.818ZM68.0381 93.182H28.9618C26.4239 93.182 24.3591 91.1171 24.3591 88.5793V83.9765H72.6409V88.5793C72.6409 91.1171 70.576 93.182 68.0381 93.182Z" fill="black"/>
<path d="M45.4941 8.82972H51.5058C52.284 8.82972 52.9148 8.19887 52.9148 7.42072C52.9148 6.64258 52.284 6.01172 51.5058 6.01172H45.4941C44.7159 6.01172 44.0851 6.64258 44.0851 7.42072C44.0851 8.19887 44.7159 8.82972 45.4941 8.82972Z" fill="black"/>
<path d="M40.9851 8.82972C41.3571 8.82972 41.7197 8.67943 41.9808 8.41641C42.2438 8.15528 42.3941 7.7927 42.3941 7.42072C42.3941 7.05062 42.2438 6.68616 41.9808 6.42503C41.7197 6.16201 41.3571 6.01172 40.9851 6.01172C40.615 6.01172 40.2506 6.16201 39.9894 6.42503C39.7264 6.68616 39.5761 7.05062 39.5761 7.42072C39.5761 7.7927 39.7264 8.15528 39.9894 8.41641C40.2506 8.67924 40.615 8.82972 40.9851 8.82972Z" fill="black"/>
<path d="M48.5 85.6673C46.8943 85.6673 45.588 86.9735 45.588 88.5792C45.588 90.1849 46.8943 91.4912 48.5 91.4912C50.1056 91.4912 51.4119 90.1849 51.4119 88.5792C51.4119 86.9735 50.1056 85.6673 48.5 85.6673ZM48.5 88.6732C48.4481 88.6732 48.406 88.6311 48.406 88.5792C48.406 88.5274 48.4481 88.4853 48.5 88.4853C48.5518 88.4853 48.5939 88.5274 48.5939 88.5792C48.5939 88.6311 48.5518 88.6732 48.5 88.6732Z" fill="black"/>
<path d="M68.0381 18.0352H28.9618C28.1837 18.0352 27.5528 18.6661 27.5528 19.4442V28.4618C27.5528 29.24 28.1837 29.8708 28.9618 29.8708H68.0381C68.8163 29.8708 69.4471 29.24 69.4471 28.4618V19.4442C69.4471 18.6661 68.8163 18.0352 68.0381 18.0352ZM66.6291 27.0528H30.3708V20.8532H66.6291V27.0528Z" fill="black"/>
<path d="M68.0381 34.5675H28.9618C28.1837 34.5675 27.5528 35.1984 27.5528 35.9765C27.5528 36.7547 28.1837 37.3855 28.9618 37.3855H68.0381C68.8163 37.3855 69.4471 36.7547 69.4471 35.9765C69.4471 35.1984 68.8163 34.5675 68.0381 34.5675Z" fill="black"/>
<path d="M63.5294 43.3972C64.3075 43.3972 64.9384 42.7664 64.9384 41.9882C64.9384 41.2101 64.3075 40.5792 63.5294 40.5792H33.4706C32.6925 40.5792 32.0616 41.2101 32.0616 41.9882C32.0616 42.7664 32.6925 43.3972 33.4706 43.3972H63.5294Z" fill="black"/>
<path d="M68.0381 49.5969H40.9853C40.2072 49.5969 39.5763 50.2277 39.5763 51.0059C39.5763 51.784 40.2072 52.4149 40.9853 52.4149H68.0381C68.8163 52.4149 69.4471 51.784 69.4471 51.0059C69.4471 50.2277 68.8163 49.5969 68.0381 49.5969Z" fill="black"/>
<path d="M31.9677 46.591C29.5333 46.591 27.5528 48.5715 27.5528 51.0059C27.5528 53.4403 29.5333 55.4208 31.9677 55.4208C34.402 55.4208 36.3825 53.4403 36.3825 51.0059C36.3825 48.5715 34.402 46.591 31.9677 46.591ZM31.9677 52.6027C31.0871 52.6027 30.3708 51.8864 30.3708 51.0059C30.3708 50.1253 31.0871 49.409 31.9677 49.409C32.8482 49.409 33.5645 50.1253 33.5645 51.0059C33.5645 51.8864 32.8482 52.6027 31.9677 52.6027Z" fill="black"/>
<path d="M68.0381 60.1174H40.9853C40.2072 60.1174 39.5763 60.7483 39.5763 61.5264C39.5763 62.3046 40.2072 62.9354 40.9853 62.9354H68.0381C68.8163 62.9354 69.4471 62.3046 69.4471 61.5264C69.4471 60.7483 68.8163 60.1174 68.0381 60.1174Z" fill="black"/>
<path d="M31.9677 57.1116C29.5333 57.1116 27.5528 59.0921 27.5528 61.5264C27.5528 63.9608 29.5333 65.9413 31.9677 65.9413C34.402 65.9413 36.3825 63.9608 36.3825 61.5264C36.3825 59.0921 34.402 57.1116 31.9677 57.1116ZM31.9677 63.1233C31.0871 63.1233 30.3708 62.407 30.3708 61.5264C30.3708 60.6459 31.0871 59.9296 31.9677 59.9296C32.8482 59.9296 33.5645 60.6459 33.5645 61.5264C33.5645 62.407 32.8482 63.1233 31.9677 63.1233Z" fill="black"/>
<path d="M68.0381 70.6379H40.9853C40.2072 70.6379 39.5763 71.2688 39.5763 72.0469C39.5763 72.8251 40.2072 73.4559 40.9853 73.4559H68.0381C68.8163 73.4559 69.4471 72.8251 69.4471 72.0469C69.4471 71.2688 68.8163 70.6379 68.0381 70.6379Z" fill="black"/>
<path d="M31.9677 67.6321C29.5333 67.6321 27.5528 69.6126 27.5528 72.047C27.5528 74.4813 29.5333 76.4618 31.9677 76.4618C34.402 76.4618 36.3825 74.4813 36.3825 72.047C36.3825 69.6126 34.402 67.6321 31.9677 67.6321ZM31.9677 73.6438C31.0871 73.6438 30.3708 72.9275 30.3708 72.047C30.3708 71.1664 31.0871 70.4501 31.9677 70.4501C32.8482 70.4501 33.5645 71.1664 33.5645 72.047C33.5645 72.9275 32.8482 73.6438 31.9677 73.6438Z" fill="black"/>
</svg>
