<svg width="96" height="96" viewBox="0 0 96 96" fill="none" xmlns="http://www.w3.org/2000/svg">
<path d="M89.8064 12.3871V0H71.2258V12.3871H67.3781L58.8387 0.432L50.2994 12.3871H0V86.7097H49.5484C49.5484 91.8333 53.7151 96 58.8387 96C63.9623 96 68.129 91.8333 68.129 86.7097H71.2258V96H89.8064V86.7097H96V12.3871H89.8064ZM49.5484 52.6452H27.9964L37.9045 40.2581H45.6774L49.5484 45.4188V52.6452ZM49.5484 40.2581L47.2258 37.1613H36.4181L24.0294 52.6452H12.3871V55.7419H49.5484V58.8387H9.29032V34.0645H49.5484V40.2581ZM49.5484 30.9677H6.19355V61.9355H49.5484V83.6129H3.09677V27.871H49.5484V30.9677ZM49.5484 24.7742H3.09677V15.4839H49.5484V24.7742ZM58.8387 5.76155L63.5721 12.3871H54.1053L58.8387 5.76155ZM52.6452 15.4839H57.2903V74.3226H52.6452V15.4839ZM65.0323 86.7097C65.0323 90.1254 62.2545 92.9032 58.8387 92.9032C55.423 92.9032 52.6452 90.1254 52.6452 86.7097V83.6129H65.0323V86.7097ZM65.0323 80.5161H52.6452V77.4193H65.0323V80.5161ZM65.0323 74.3226H60.3871V15.4839H65.0323V74.3226ZM71.2258 83.6129H68.129V61.9355H71.2258V83.6129ZM71.2258 58.8387H68.129V55.7419H71.2258V58.8387ZM71.2258 52.6452H68.129V34.0645H71.2258V52.6452ZM71.2258 30.9677H68.129V27.871H71.2258V30.9677ZM71.2258 24.7742H68.129V15.4839H71.2258V24.7742ZM86.7097 9.29032H80.5161V12.3871H86.7097V18.5806H80.5161V21.6774H86.7097V27.871H80.5161V30.9677H86.7097V37.1613H80.5161V40.2581H86.7097V46.4516H80.5161V49.5484H86.7097V55.7419H80.5161V58.8387H86.7097V65.0323H80.5161V68.129H86.7097V74.3226H80.5161V77.4193H86.7097V83.6129H80.5161V86.7097H86.7097V92.9032H74.3226V3.09677H86.7097V9.29032ZM92.9032 83.6129H89.8064V15.4839H92.9032V83.6129Z" fill="black"/>
<path d="M9.29032 18.5806H6.19354V21.6774H9.29032V18.5806Z" fill="black"/>
<path d="M15.4839 18.5806H12.3871V21.6774H15.4839V18.5806Z" fill="black"/>
<path d="M21.6774 18.5806H18.5807V21.6774H21.6774V18.5806Z" fill="black"/>
<path d="M27.871 65.0322H6.19354V80.5161H27.871V65.0322ZM24.7742 77.4193H9.29032V68.129H24.7742V77.4193Z" fill="black"/>
<path d="M46.4516 65.0322H30.9677V68.129H46.4516V65.0322Z" fill="black"/>
<path d="M46.4516 71.2258H30.9677V74.3226H46.4516V71.2258Z" fill="black"/>
<path d="M46.4516 77.4194H30.9677V80.5161H46.4516V77.4194Z" fill="black"/>
</svg>
