<svg fill="#000000" height="24" width="24" version="1.1" id="Capa_1" viewBox="0 0 24 24">
<g>
	<g>
		<path d="M400.75,334.1c-51.5-19.7-82.4-39.8-82.4-39.8l-39.7,125.6l-5.4,17l-17.8-50.4c40.9-57-3.1-59.7-10.7-59.8l0,0h-0.1h-0.1
			h-0.1h-0.1l0,0c-7.6,0.1-51.6,2.8-10.7,59.8l-17.8,50.4l-5.4-17l-39.7-125.6c0,0-30.9,20.1-82.4,39.8
			c-56.9,20.6-53.4,67.3-54.5,154.9h210.4h0.5h210.4C453.95,401.4,457.45,354.7,400.75,334.1z"/>
		<path d="M246.05,103.4l23.1-23.1c-28.4-9.6-61-3.1-83.6,19.5c-31.7,31.7-31.7,83.2,0,114.9s83.2,31.7,114.9,0
			c22.6-22.6,29.1-55.2,19.5-83.6l-23.1,23.1c0.8,14.8-4.4,29.9-15.7,41.2c-21.1,21.1-55.2,21.1-76.3,0s-21.1-55.2,0-76.3
			C216.15,107.8,231.25,102.6,246.05,103.4z"/>
		<path d="M339.85,254.1c44.7-44.7,52.1-112.6,22-165l-22.1,22.1c18.9,39.8,11.9,88.9-21,121.8c-41.9,41.9-109.7,41.9-151.6,0
			s-41.9-109.7,0-151.6c33-32.9,82-40,121.8-21l22.1-22.1c-52.3-30-120.3-22.7-165,22c-53.5,53.5-53.5,140.2,0,193.8
			C199.65,307.6,286.35,307.6,339.85,254.1z"/>
		<path d="M250.45,130.3c-2.4-0.7-4.9-1-7.5-1c-15.5,0-28,12.5-28,28s12.5,28,28,28s28-12.5,28-28c0-2.6-0.4-5.1-1-7.5l78.1-78.1
			l12.6,1.7l39.5-39.5l-29.9-4l-4-29.9l-39.4,39.5l1.7,12.6L250.45,130.3z"/>
	</g>
</g>
</svg>