<svg xmlns="http://www.w3.org/2000/svg" viewBox="0 0 24 24" width="24" height="24" color="#000000" fill="none">
    <path d="M12 7.5C12 9.433 10.433 11 8.5 11C6.567 11 5 9.433 5 7.5C5 5.567 6.567 4 8.5 4C10.433 4 12 5.567 12 7.5Z" stroke="currentColor" stroke-width="1.5" />
    <path d="M13.5 11C15.433 11 17 9.433 17 7.5C17 5.567 15.433 4 13.5 4" stroke="currentColor" stroke-width="1.5" stroke-linecap="round" />
    <path d="M13.1429 20H3.85714C2.83147 20 2 19.2325 2 18.2857C2 15.9188 4.07868 14 6.64286 14H10.3571C11.4023 14 12.3669 14.3188 13.1429 14.8568" stroke="currentColor" stroke-width="1.5" stroke-linecap="round" stroke-linejoin="round" />
    <path d="M19 14V20M22 17L16 17" stroke="currentColor" stroke-width="1.5" stroke-linecap="round" />
</svg>