<svg xmlns="http://www.w3.org/2000/svg" viewBox="0 0 24 24" width="24" height="24" color="#000000" fill="none">
    <path d="M2.5 12C2.5 7.52166 2.5 5.28249 3.89124 3.89124C5.28249 2.5 7.52166 2.5 12 2.5C16.4783 2.5 18.7175 2.5 20.1088 3.89124C21.5 5.28249 21.5 7.52166 21.5 12C21.5 16.4783 21.5 18.7175 20.1088 20.1088C18.7175 21.5 16.4783 21.5 12 21.5C7.52166 21.5 5.28249 21.5 3.89124 20.1088C2.5 18.7175 2.5 16.4783 2.5 12Z" stroke="currentColor" stroke-width="1.5" stroke-linejoin="round" />
    <path d="M12 16L11.1339 13.2M6 16L6.86614 13.2M6.86614 13.2L7.59031 10.8589C8.17989 8.95298 8.47468 8 9 8C9.52532 8 9.82011 8.95298 10.4097 10.8589L11.1339 13.2M6.86614 13.2H11.1339" stroke="currentColor" stroke-width="1.5" stroke-linecap="round" stroke-linejoin="round" />
    <path d="M14 12.8696V14C14 15.1046 14.8954 16 16 16C16.7429 16 17.3912 15.5949 17.7361 14.9936M14 12.8696V12C14 10.8954 14.8954 10 16 10C17.1046 10 18 10.8954 18 12L18 12.8696H14Z" stroke="currentColor" stroke-width="1.5" stroke-linecap="round" stroke-linejoin="round" />
</svg>