<svg width="534" height="442" viewBox="0 0 534 442" fill="none" xmlns="http://www.w3.org/2000/svg">
<g clip-path="url(#clip0)">
<path d="M81.1041 355.563C81.1041 382.287 65.2143 391.619 45.6146 391.619C45.1583 391.619 44.7044 391.615 44.253 391.602C43.3453 391.582 42.445 391.543 41.557 391.479C23.8665 390.228 10.1225 380.415 10.1225 355.563C10.1225 329.845 42.9876 297.391 45.4666 294.982L45.4715 294.979C45.5653 294.886 45.6146 294.839 45.6146 294.839C45.6146 294.839 81.1041 328.836 81.1041 355.563Z" fill="#37BC9B"/>
<path d="M44.3196 387.53L57.3014 369.396L44.2875 389.521L44.253 391.602C43.3453 391.582 42.445 391.543 41.557 391.479L42.9556 364.742L42.9457 364.535L42.9704 364.496L43.1011 361.97L30.0552 341.794L43.1406 360.076L43.1726 360.611L44.2308 340.41L33.062 319.563L44.3665 336.861L45.4666 294.982L45.4715 294.839V294.979L45.289 328.005L56.406 314.912L45.2421 330.848L44.9486 348.936L55.3305 331.579L44.9042 351.599L44.7414 361.654L59.8124 337.493L44.6847 365.164L44.3196 387.53Z" fill="#F2F2F2"/>
<g opacity="0.7">
<path opacity="0.7" d="M492.738 168.245V161.809H460.553V191.577C460.553 193.241 461.214 194.837 462.391 196.014C463.568 197.191 465.164 197.852 466.829 197.852H486.462C488.127 197.852 489.723 197.191 490.9 196.014C492.077 194.837 492.738 193.241 492.738 191.577V184.979C494.958 184.979 497.086 184.098 498.655 182.529C500.225 180.96 501.106 178.832 501.106 176.612C501.106 174.393 500.225 172.265 498.655 170.696C497.086 169.127 494.958 168.245 492.738 168.245ZM492.738 181.761V171.464C494.104 171.464 495.414 172.006 496.379 172.972C497.345 173.937 497.888 175.247 497.888 176.612C497.888 177.978 497.345 179.288 496.379 180.253C495.414 181.219 494.104 181.761 492.738 181.761Z" fill="url(#paint0_linear)"/>
</g>
<path d="M491.703 169.253C490.191 169.253 488.714 169.701 487.458 170.54C486.201 171.38 485.222 172.573 484.644 173.969C484.065 175.365 483.914 176.901 484.209 178.383C484.504 179.865 485.231 181.226 486.3 182.294C487.368 183.363 488.73 184.09 490.212 184.385C491.694 184.68 493.23 184.528 494.627 183.95C496.023 183.372 497.216 182.393 498.055 181.137C498.895 179.88 499.343 178.403 499.343 176.892C499.343 174.866 498.538 172.923 497.105 171.49C495.672 170.058 493.729 169.253 491.703 169.253ZM491.703 181.593C490.773 181.593 489.864 181.318 489.09 180.801C488.317 180.285 487.715 179.55 487.359 178.691C487.003 177.832 486.91 176.887 487.091 175.975C487.273 175.063 487.72 174.225 488.378 173.568C489.035 172.911 489.873 172.463 490.785 172.281C491.697 172.1 492.643 172.193 493.502 172.549C494.361 172.905 495.095 173.507 495.612 174.28C496.129 175.054 496.404 175.962 496.404 176.892C496.404 178.139 495.909 179.335 495.027 180.217C494.146 181.098 492.95 181.593 491.703 181.593Z" fill="#6C63FF"/>
<path opacity="0.1" d="M491.703 169.253C490.191 169.253 488.714 169.701 487.458 170.54C486.201 171.38 485.222 172.573 484.644 173.969C484.065 175.365 483.914 176.901 484.209 178.383C484.504 179.865 485.231 181.226 486.3 182.294C487.368 183.363 488.73 184.09 490.212 184.385C491.694 184.68 493.23 184.528 494.627 183.95C496.023 183.372 497.216 182.393 498.055 181.137C498.895 179.88 499.343 178.403 499.343 176.892C499.343 174.866 498.538 172.923 497.105 171.49C495.672 170.058 493.729 169.253 491.703 169.253ZM491.703 181.593C490.773 181.593 489.864 181.318 489.09 180.801C488.317 180.285 487.715 179.55 487.359 178.691C487.003 177.832 486.91 176.887 487.091 175.975C487.273 175.063 487.72 174.225 488.378 173.568C489.035 172.911 489.873 172.463 490.785 172.281C491.697 172.1 492.643 172.193 493.502 172.549C494.361 172.905 495.095 173.507 495.612 174.28C496.129 175.054 496.404 175.962 496.404 176.892C496.404 178.139 495.909 179.335 495.027 180.217C494.146 181.098 492.95 181.593 491.703 181.593Z" fill="black"/>
<path d="M462.316 163.376H491.703V190.525C491.703 192.053 491.096 193.518 490.015 194.598C488.935 195.678 487.47 196.285 485.942 196.285H468.076C466.549 196.285 465.083 195.678 464.003 194.598C462.923 193.518 462.316 192.053 462.316 190.525V163.376Z" fill="#6C63FF"/>
<path opacity="0.1" d="M486.413 163.376V190.555C486.413 192.075 485.809 193.532 484.735 194.607C483.66 195.681 482.202 196.285 480.683 196.285H483.621C485.141 196.285 486.599 195.681 487.673 194.607C488.748 193.532 489.352 192.075 489.352 190.555V163.376H486.413Z" fill="black"/>
<path d="M468.115 141.471C467.864 141.479 467.617 141.542 467.393 141.656C467.168 141.77 466.972 141.931 466.817 142.13C466.432 142.828 467.13 143.616 467.768 144.096C468.945 144.983 470.187 145.854 470.987 147.092C471.788 148.33 472.039 150.058 471.164 151.244C470.021 152.794 467.295 153.127 467.032 155.034C466.862 156.258 467.921 157.302 468.993 157.916C471.64 159.432 475.053 159.837 476.97 162.209C477.763 160.579 479.537 159.636 481.306 159.233C483.074 158.831 484.911 158.861 486.704 158.588C486.997 158.582 487.285 158.508 487.543 158.371C487.802 158.233 488.025 158.037 488.194 157.798C488.695 156.781 487.267 155.561 487.76 154.54C488.135 153.763 489.237 153.823 490.042 153.512C491.353 153.005 491.893 151.319 491.521 149.964C491.149 148.609 490.098 147.55 488.994 146.682C486.016 144.342 482.435 142.966 478.813 141.976C477.129 141.516 475.151 140.794 473.402 140.725C471.713 140.657 469.787 141.185 468.115 141.471Z" fill="#EEEEEE"/>
<path d="M261.859 203.224L200.413 394.623" stroke="#873F3F" stroke-width="8" stroke-miterlimit="10"/>
<g opacity="0.7">
<path opacity="0.7" d="M309.467 416.18C301.908 416.618 295.175 422.949 295.175 422.949L291.919 414.873L291.653 414.96C293.244 407.998 325.606 264.487 293.21 252.115C268.316 242.608 241.912 230.843 221.225 231.285V197.383H250.227V196.175H273.188C277.589 193.032 271.194 190.87 264.046 189.519C264.337 189.186 264.594 188.824 264.812 188.438L301.587 122.47C301.587 122.47 310.046 108.575 304.608 101.929C299.17 95.2839 291.315 118.845 291.315 118.845L261.104 162.343C261.104 162.343 230.612 130.567 211.215 114.765C209.062 112.632 206.634 110.797 203.994 109.308C200.453 106.913 197.773 105.672 196.451 106.158C196.438 106.163 196.427 106.172 196.414 106.177C193.474 105.363 190.438 104.951 187.388 104.95H184.971V99.9932C190.385 98.2054 195.338 95.2455 199.477 91.3243C203.616 87.4031 206.838 82.6173 208.915 77.3081C212.324 71.6635 214.405 65.3184 215.003 58.7518C215.601 52.1852 214.699 45.5687 212.366 39.4016C212.726 39.3589 213.073 39.2388 213.383 39.0493C214.477 38.345 214.586 36.8042 214.48 35.5073C214.083 31.1544 212.632 26.9637 210.251 23.2976C207.871 19.6314 204.634 16.6002 200.819 14.4659C197.757 12.7921 194.251 11.6389 191.994 8.97877C190.054 6.69301 189.239 3.49612 186.892 1.63111C184.103 -0.584562 180.075 -0.20366 176.653 0.785001C172.845 1.88661 169.237 3.58878 165.966 5.82729C162.265 8.36199 158.924 11.6184 154.663 13.0213C151.635 14.0182 148.352 13.9983 145.305 14.9349C142.966 15.6757 140.834 16.9535 139.078 18.6659C137.322 20.3783 135.991 22.4779 135.192 24.7967C134.416 27.2878 134.122 29.9038 134.327 32.5048C132.474 35.6017 131.015 38.9183 129.986 42.3772C129.758 42.5003 129.529 42.6208 129.303 42.7477L129.966 42.4499C127.655 50.2496 127.578 58.5412 129.744 66.3824C131.91 74.2236 136.233 81.3001 142.221 86.8079C146.952 92.9665 153.426 97.5605 160.802 99.9932V105.99C155.54 107.125 150.519 109.181 145.973 112.063L145.966 112.055C145.966 112.055 145.581 112.293 144.92 112.737C144.854 112.782 144.788 112.826 144.722 112.871C140.251 115.905 125.269 126.991 125.775 138.971C125.755 139.432 125.758 139.894 125.783 140.357C124.965 143.819 124.551 147.365 124.549 150.922V237.861C124.537 247.467 127.766 256.797 133.713 264.341C121.104 267.167 113.068 271.441 113.068 276.223C113.132 276.624 113.132 277.031 113.068 277.432C113.068 285.94 138.497 292.837 169.866 292.837C173.658 292.837 177.363 292.735 180.947 292.543L216.391 321.232L159.594 412.457C159.594 412.457 140.863 426.956 155.364 431.789C169.866 436.622 199.473 440.247 199.473 440.247C199.473 440.247 204.306 431.789 197.66 428.164C191.013 424.539 181.95 426.352 181.95 426.352L183.158 419.102C183.158 419.102 281.647 334.523 261.104 305.524C257.173 299.976 253.243 294.252 249.279 288.617L264.783 290.03L268.311 422.802L268.752 422.659C267.867 425.267 261.603 444.953 275.487 441.622C290.351 438.055 317.396 425.476 317.396 425.476C317.396 425.476 317.025 415.741 309.467 416.18ZM250.227 187.717L221.225 179.298V154.489L252.747 187.947C251.198 187.792 250.227 187.717 250.227 187.717Z" fill="url(#paint1_linear)"/>
</g>
<path d="M172.644 101.026C196.138 101.026 215.184 81.9831 215.184 58.4927C215.184 35.0022 196.138 15.9594 172.644 15.9594C149.15 15.9594 130.105 35.0022 130.105 58.4927C130.105 81.9831 149.15 101.026 172.644 101.026Z" fill="black"/>
<path d="M221.092 155.965L253.556 190.422C254.239 191.147 255.084 191.701 256.022 192.039C256.96 192.377 257.965 192.489 258.954 192.366C259.943 192.244 260.89 191.889 261.717 191.332C262.543 190.775 263.227 190.031 263.713 189.161L299.671 124.655L289.627 121.111L260.086 163.644C260.086 163.644 204.627 105.848 196.868 108.706C189.109 111.563 221.092 155.965 221.092 155.965Z" fill="#CCCCCC"/>
<path d="M159.055 275.294L111.198 399.349" stroke="#BDBDBD" stroke-width="5" stroke-miterlimit="10"/>
<path d="M182.688 275.294L230.545 399.349" stroke="#BDBDBD" stroke-width="5" stroke-miterlimit="10"/>
<path d="M170.872 291.244C201.544 291.244 226.409 284.5 226.409 276.18C226.409 267.86 201.544 261.116 170.872 261.116C140.199 261.116 115.334 267.86 115.334 276.18C115.334 284.5 140.199 291.244 170.872 291.244Z" fill="#B84733"/>
<path d="M170.872 290.062C201.544 290.062 226.409 283.318 226.409 274.999C226.409 266.679 201.544 259.935 170.872 259.935C140.199 259.935 115.334 266.679 115.334 274.999C115.334 283.318 140.199 290.062 170.872 290.062Z" fill="#E9573F"/>
<path d="M147.502 302.55L199.903 318.694" stroke="#BDBDBD" stroke-width="5" stroke-miterlimit="10"/>
<path d="M194.241 302.55L141.841 318.694" stroke="#BDBDBD" stroke-width="5" stroke-miterlimit="10"/>
<path d="M171.518 107.524H188.006C196.781 107.524 205.196 111.009 211.401 117.213C217.606 123.417 221.092 131.832 221.092 140.605V228.035H126.56V152.476C126.56 140.554 131.297 129.12 139.728 120.69C148.159 112.26 159.595 107.524 171.518 107.524Z" fill="#CCCCCC"/>
<path d="M126.56 228.035H221.092V279.429H168.508C157.383 279.429 146.713 275.01 138.846 267.144C130.979 259.279 126.56 248.61 126.56 237.487V228.035Z" fill="#3F3D56"/>
<path opacity="0.05" d="M127.837 142.992L185.642 197.907H249.451V189.637L194.505 173.687L147.502 115.652C147.502 115.652 126.159 128.837 127.837 142.992Z" fill="black"/>
<path d="M127.837 141.81L185.642 196.726H249.451V188.455L194.505 172.505L147.502 114.471C147.502 114.471 126.159 127.656 127.837 141.81Z" fill="#CCCCCC"/>
<path d="M249.451 188.455C249.451 188.455 280.174 190.818 271.903 196.726H249.451V188.455Z" fill="#FDA57D"/>
<path d="M289.627 121.111C289.627 121.111 297.308 98.0722 302.626 104.57C307.943 111.068 299.671 124.655 299.671 124.655L289.627 121.111Z" fill="#FDA57D"/>
<path opacity="0.05" d="M126.56 228.035V230.792L221.092 230.988V228.035H126.56Z" fill="black"/>
<path d="M200.095 282.704L263.684 288.499L267.134 418.327L289.899 410.916C289.899 410.916 323.946 263.823 291.48 251.425C259.014 239.026 223.92 222.699 202.968 236.005C182.015 249.311 200.095 282.704 200.095 282.704Z" fill="#3F3D56"/>
<path opacity="0.1" d="M203.958 242.803C203.958 242.803 238.817 260.525 243.543 280.611L203.958 242.803Z" fill="black"/>
<path d="M166.737 278.838L216.365 319.009L160.828 408.21L183.87 414.708C183.87 414.708 280.174 332.005 260.086 303.649C239.998 275.294 219.91 242.213 195.096 241.622C170.281 241.031 166.737 278.838 166.737 278.838Z" fill="#3F3D56"/>
<path opacity="0.05" d="M244.725 148.285L257.132 169.552L260.086 163.644L244.725 148.285Z" fill="black"/>
<path d="M160.828 408.21C160.828 408.21 142.512 422.388 156.692 427.114C170.872 431.84 199.822 435.384 199.822 435.384C199.822 435.384 204.549 427.114 198.05 423.569C191.551 420.025 182.688 421.797 182.688 421.797L183.87 414.708L160.828 408.21Z" fill="#2F2E41"/>
<path d="M267.662 417.907C267.662 417.907 259.617 440.216 274.151 436.728C288.685 433.241 315.13 420.941 315.13 420.941C315.13 420.941 314.767 411.422 307.377 411.851C299.986 412.279 293.402 418.47 293.402 418.47L290.218 410.573L267.662 417.907Z" fill="#2F2E41"/>
<path d="M173.826 86.8481H173.826C167.3 86.8481 162.009 92.1378 162.009 98.6629V110.478C162.009 117.003 167.3 122.292 173.826 122.292H173.826C180.352 122.292 185.642 117.003 185.642 110.478V98.6629C185.642 92.1378 180.352 86.8481 173.826 86.8481Z" fill="#FDA57D"/>
<path opacity="0.05" d="M173.826 88.0296C170.692 88.0296 167.686 89.2744 165.47 91.4901C163.254 93.7058 162.009 96.7109 162.009 99.8444V103.859C169.685 106.383 177.967 106.383 185.642 103.859V99.8444C185.642 96.7109 184.397 93.7058 182.181 91.4901C179.965 89.2744 176.96 88.0296 173.826 88.0296Z" fill="black"/>
<path d="M173.826 104.57C194.709 104.57 211.639 87.6434 211.639 66.763C211.639 45.8826 194.709 28.9557 173.826 28.9557C152.942 28.9557 136.013 45.8826 136.013 66.763C136.013 87.6434 152.942 104.57 173.826 104.57Z" fill="#FDA57D"/>
<path opacity="0.05" d="M136.013 65.0475C136.013 65.0475 145.466 67.4832 150.784 56.7407C156.101 45.9982 160.237 40.1387 182.097 46.4865C203.958 52.8344 208.355 53.6089 209.406 47.6062C210.124 43.5044 202.351 33.5412 197.356 27.6425C194.919 24.7649 190.943 23.0484 186.693 23.0484H162.009L147.239 29.8845L136.013 39.6504L133.65 52.8344L136.013 65.0475Z" fill="black"/>
<path d="M136.013 63.866C136.013 63.866 145.466 66.3018 150.784 55.5593C156.101 44.8167 160.237 38.9572 182.097 45.305C203.958 51.6529 208.355 52.4274 209.406 46.4247C210.124 42.3229 202.351 32.3597 197.356 26.4611C194.919 23.5835 190.943 21.8669 186.693 21.8669H162.009L147.239 28.703L136.013 38.4689L133.65 51.6529L136.013 63.866Z" fill="black"/>
<path d="M139.853 71.4889C141.974 71.4889 143.694 68.0506 143.694 63.8093C143.694 59.568 141.974 56.1297 139.853 56.1297C137.732 56.1297 136.013 59.568 136.013 63.8093C136.013 68.0506 137.732 71.4889 139.853 71.4889Z" fill="#FDA57D"/>
<path d="M137.109 44.0487C136.232 39.1034 135.371 33.9105 136.967 29.1483C137.748 26.881 139.05 24.8279 140.767 23.1535C142.484 21.479 144.569 20.2296 146.855 19.5052C149.835 18.5895 153.046 18.6089 156.006 17.6341C160.173 16.2623 163.439 13.0781 167.059 10.5996C170.257 8.41074 173.785 6.74632 177.508 5.66915C180.854 4.7024 184.793 4.32995 187.52 6.4965C189.815 8.32015 190.612 11.4461 192.509 13.6812C194.716 16.2823 198.145 17.4099 201.138 19.0466C204.869 21.1336 208.034 24.0976 210.362 27.6824C212.689 31.2673 214.109 35.365 214.497 39.6213C214.6 40.8895 214.494 42.3961 213.424 43.0848C212.759 43.4228 212.01 43.5595 211.269 43.4781C196.157 43.2621 181.026 43.0452 165.976 41.6581C161.297 41.2269 156.609 40.6821 151.914 40.8599C144.648 41.1432 137.552 43.145 131.209 46.7012" fill="black"/>
<path d="M71.6678 381.185H19.3696C8.67209 381.185 0 389.855 0 400.551V400.551C0 411.247 8.67209 419.918 19.3696 419.918H71.6678C82.3653 419.918 91.0374 411.247 91.0374 400.551C91.0374 389.855 82.3653 381.185 71.6678 381.185Z" fill="#495057"/>
<path d="M340.241 242.902C340.471 242.894 340.689 242.797 340.848 242.632C341.008 242.466 341.097 242.245 341.097 242.016C341.097 241.786 341.008 241.565 340.848 241.4C340.689 241.234 340.471 241.137 340.241 241.13C340.012 241.137 339.794 241.234 339.634 241.4C339.475 241.565 339.385 241.786 339.385 242.016C339.385 242.245 339.475 242.466 339.634 242.632C339.794 242.797 340.012 242.894 340.241 242.902Z" fill="url(#paint2_linear)"/>
<path d="M470.279 203.224L531.725 421.851" stroke="#873F3F" stroke-width="8" stroke-miterlimit="10"/>
<path d="M531.974 196.821H200.164V209.75H531.974V196.821Z" fill="#873F3F"/>
<path d="M332.462 193.772H285.787C283.666 193.772 281.947 195.491 281.947 197.612V197.612C281.947 199.732 283.666 201.452 285.787 201.452H332.462C334.583 201.452 336.302 199.732 336.302 197.612C336.302 195.491 334.583 193.772 332.462 193.772Z" fill="#535461"/>
<g opacity="0.7">
<path opacity="0.7" d="M433.458 108.151H331.706C322.497 108.151 315.033 115.614 315.033 124.821V184.877C315.033 194.084 322.497 201.547 331.706 201.547H433.458C442.666 201.547 450.13 194.084 450.13 184.877V124.821C450.13 115.614 442.666 108.151 433.458 108.151Z" fill="url(#paint3_linear)"/>
</g>
<path d="M429.564 109.874H333.296C324.54 109.874 317.441 116.971 317.441 125.726V185.695C317.441 194.45 324.54 201.547 333.296 201.547H429.564C438.321 201.547 445.419 194.45 445.419 185.695V125.726C445.419 116.971 438.321 109.874 429.564 109.874Z" fill="#3E3F49"/>
<path d="M431.337 109.874H335.069C326.312 109.874 319.214 116.971 319.214 125.726V185.695C319.214 194.45 326.312 201.547 335.069 201.547H431.337C440.093 201.547 447.192 194.45 447.192 185.695V125.726C447.192 116.971 440.093 109.874 431.337 109.874Z" fill="#535461"/>
<path d="M389.181 159.214C391.465 159.214 393.317 157.362 393.317 155.079C393.317 152.795 391.465 150.943 389.181 150.943C386.897 150.943 385.046 152.795 385.046 155.079C385.046 157.362 386.897 159.214 389.181 159.214Z" fill="#E0E0E0"/>
</g>
<defs>
<linearGradient id="paint0_linear" x1="480.83" y1="197.852" x2="480.83" y2="161.809" gradientUnits="userSpaceOnUse">
<stop stop-color="#808080" stop-opacity="0.25"/>
<stop offset="0.53514" stop-color="#808080" stop-opacity="0.12"/>
<stop offset="1" stop-color="#808080" stop-opacity="0.1"/>
</linearGradient>
<linearGradient id="paint1_linear" x1="105157" y1="364256" x2="105157" y2="33544.4" gradientUnits="userSpaceOnUse">
<stop stop-color="#808080" stop-opacity="0.25"/>
<stop offset="0.53514" stop-color="#808080" stop-opacity="0.12"/>
<stop offset="1" stop-color="#808080" stop-opacity="0.1"/>
</linearGradient>
<linearGradient id="paint2_linear" x1="1581.84" y1="1104.33" x2="1581.84" y2="1099.02" gradientUnits="userSpaceOnUse">
<stop stop-color="#808080" stop-opacity="0.25"/>
<stop offset="0.53514" stop-color="#808080" stop-opacity="0.12"/>
<stop offset="1" stop-color="#808080" stop-opacity="0.1"/>
</linearGradient>
<linearGradient id="paint3_linear" x1="87795.9" y1="31973" x2="87795.9" y2="17206.9" gradientUnits="userSpaceOnUse">
<stop stop-color="#808080" stop-opacity="0.25"/>
<stop offset="0.53514" stop-color="#808080" stop-opacity="0.12"/>
<stop offset="1" stop-color="#808080" stop-opacity="0.1"/>
</linearGradient>
<clipPath id="clip0">
<rect width="534" height="442" fill="white"/>
</clipPath>
</defs>
</svg>
